<mxfile host="app.diagrams.net" modified="2024-06-22T16:40:05.399Z" agent="Mozilla/5.0 (Windows NT 10.0; Win64; x64) AppleWebKit/537.36 (KHTML, like Gecko) Chrome/126.0.0.0 Safari/537.36" etag="99SrWtfp70Pm-zBUUkmY" version="23.1.1" type="device">
  <diagram id="C5RBs43oDa-KdzZeNtuy" name="Page-1">
    <mxGraphModel dx="1687" dy="925" grid="1" gridSize="10" guides="1" tooltips="1" connect="1" arrows="1" fold="1" page="1" pageScale="1" pageWidth="827" pageHeight="1169" math="0" shadow="0">
      <root>
        <mxCell id="WIyWlLk6GJQsqaUBKTNV-0" />
        <mxCell id="WIyWlLk6GJQsqaUBKTNV-1" parent="WIyWlLk6GJQsqaUBKTNV-0" />
        <mxCell id="m4kFkj_1T138fFASIhZm-7" value="&lt;span style=&quot;font-size: 13px;&quot;&gt;Raspi empfängt &#39;0&#39;&lt;/span&gt;" style="text;html=1;align=center;verticalAlign=middle;resizable=0;points=[];autosize=1;strokeColor=none;fillColor=none;" vertex="1" parent="WIyWlLk6GJQsqaUBKTNV-1">
          <mxGeometry x="200" y="140" width="130" height="30" as="geometry" />
        </mxCell>
        <mxCell id="m4kFkj_1T138fFASIhZm-16" style="edgeStyle=orthogonalEdgeStyle;rounded=0;orthogonalLoop=1;jettySize=auto;html=1;entryX=0.5;entryY=0;entryDx=0;entryDy=0;" edge="1" parent="WIyWlLk6GJQsqaUBKTNV-1" source="m4kFkj_1T138fFASIhZm-10" target="m4kFkj_1T138fFASIhZm-12">
          <mxGeometry relative="1" as="geometry" />
        </mxCell>
        <mxCell id="m4kFkj_1T138fFASIhZm-10" value="&lt;font style=&quot;font-size: 16px;&quot;&gt;ESP32 frägt, ob die Lichtschranke aktiv sein sollte&lt;/font&gt;" style="rounded=1;whiteSpace=wrap;html=1;" vertex="1" parent="WIyWlLk6GJQsqaUBKTNV-1">
          <mxGeometry x="135" y="40" width="140" height="60" as="geometry" />
        </mxCell>
        <mxCell id="m4kFkj_1T138fFASIhZm-17" style="edgeStyle=orthogonalEdgeStyle;rounded=0;orthogonalLoop=1;jettySize=auto;html=1;entryX=0.5;entryY=0;entryDx=0;entryDy=0;exitX=0;exitY=0.5;exitDx=0;exitDy=0;" edge="1" parent="WIyWlLk6GJQsqaUBKTNV-1" source="m4kFkj_1T138fFASIhZm-12" target="m4kFkj_1T138fFASIhZm-18">
          <mxGeometry relative="1" as="geometry">
            <mxPoint x="70" y="400" as="targetPoint" />
          </mxGeometry>
        </mxCell>
        <mxCell id="m4kFkj_1T138fFASIhZm-24" style="edgeStyle=orthogonalEdgeStyle;rounded=0;orthogonalLoop=1;jettySize=auto;html=1;entryX=0.5;entryY=0;entryDx=0;entryDy=0;exitX=1;exitY=0.5;exitDx=0;exitDy=0;" edge="1" parent="WIyWlLk6GJQsqaUBKTNV-1" source="m4kFkj_1T138fFASIhZm-12" target="m4kFkj_1T138fFASIhZm-23">
          <mxGeometry relative="1" as="geometry" />
        </mxCell>
        <mxCell id="m4kFkj_1T138fFASIhZm-12" value="&lt;span style=&quot;font-size: 14px;&quot;&gt;Soll die Lichtschranke aktiv sein?&amp;nbsp;&lt;/span&gt;" style="rhombus;whiteSpace=wrap;html=1;fillColor=#f8cecc;strokeColor=#b85450;" vertex="1" parent="WIyWlLk6GJQsqaUBKTNV-1">
          <mxGeometry x="110" y="240" width="190" height="100" as="geometry" />
        </mxCell>
        <mxCell id="m4kFkj_1T138fFASIhZm-53" style="edgeStyle=orthogonalEdgeStyle;rounded=0;orthogonalLoop=1;jettySize=auto;html=1;entryX=0.5;entryY=0;entryDx=0;entryDy=0;" edge="1" parent="WIyWlLk6GJQsqaUBKTNV-1" source="m4kFkj_1T138fFASIhZm-18" target="m4kFkj_1T138fFASIhZm-54">
          <mxGeometry relative="1" as="geometry">
            <mxPoint x="80" y="480" as="targetPoint" />
          </mxGeometry>
        </mxCell>
        <mxCell id="m4kFkj_1T138fFASIhZm-18" value="&lt;font style=&quot;font-size: 16px;&quot;&gt;Sende &#39;0&#39; zurück&lt;/font&gt;" style="rounded=1;whiteSpace=wrap;html=1;fillColor=#f8cecc;strokeColor=#b85450;" vertex="1" parent="WIyWlLk6GJQsqaUBKTNV-1">
          <mxGeometry x="30" y="380" width="120" height="60" as="geometry" />
        </mxCell>
        <mxCell id="m4kFkj_1T138fFASIhZm-19" value="Ja" style="text;html=1;align=center;verticalAlign=middle;resizable=0;points=[];autosize=1;strokeColor=none;fillColor=none;" vertex="1" parent="WIyWlLk6GJQsqaUBKTNV-1">
          <mxGeometry x="80" y="318" width="40" height="30" as="geometry" />
        </mxCell>
        <mxCell id="m4kFkj_1T138fFASIhZm-26" style="edgeStyle=orthogonalEdgeStyle;rounded=0;orthogonalLoop=1;jettySize=auto;html=1;entryX=0.5;entryY=0;entryDx=0;entryDy=0;exitX=0;exitY=0.5;exitDx=0;exitDy=0;" edge="1" parent="WIyWlLk6GJQsqaUBKTNV-1" source="m4kFkj_1T138fFASIhZm-23" target="m4kFkj_1T138fFASIhZm-37">
          <mxGeometry relative="1" as="geometry">
            <mxPoint x="200" y="470" as="targetPoint" />
          </mxGeometry>
        </mxCell>
        <mxCell id="m4kFkj_1T138fFASIhZm-31" style="edgeStyle=orthogonalEdgeStyle;rounded=0;orthogonalLoop=1;jettySize=auto;html=1;exitX=1;exitY=0.5;exitDx=0;exitDy=0;entryX=0.5;entryY=0;entryDx=0;entryDy=0;" edge="1" parent="WIyWlLk6GJQsqaUBKTNV-1" target="m4kFkj_1T138fFASIhZm-35">
          <mxGeometry relative="1" as="geometry">
            <mxPoint x="490" y="480" as="targetPoint" />
            <mxPoint x="390" y="410" as="sourcePoint" />
          </mxGeometry>
        </mxCell>
        <mxCell id="m4kFkj_1T138fFASIhZm-23" value="&lt;font style=&quot;font-size: 14px;&quot;&gt;Sende &#39;1&#39; zurück&lt;/font&gt;" style="rounded=1;whiteSpace=wrap;html=1;fillColor=#f8cecc;strokeColor=#b85450;" vertex="1" parent="WIyWlLk6GJQsqaUBKTNV-1">
          <mxGeometry x="280" y="380" width="120" height="60" as="geometry" />
        </mxCell>
        <mxCell id="m4kFkj_1T138fFASIhZm-25" value="Nein" style="text;html=1;align=center;verticalAlign=middle;resizable=0;points=[];autosize=1;strokeColor=none;fillColor=none;" vertex="1" parent="WIyWlLk6GJQsqaUBKTNV-1">
          <mxGeometry x="290" y="318" width="50" height="30" as="geometry" />
        </mxCell>
        <mxCell id="m4kFkj_1T138fFASIhZm-33" value="LDR" style="text;html=1;align=center;verticalAlign=middle;resizable=0;points=[];autosize=1;strokeColor=none;fillColor=none;" vertex="1" parent="WIyWlLk6GJQsqaUBKTNV-1">
          <mxGeometry x="430" y="430" width="50" height="30" as="geometry" />
        </mxCell>
        <mxCell id="m4kFkj_1T138fFASIhZm-45" style="edgeStyle=orthogonalEdgeStyle;rounded=0;orthogonalLoop=1;jettySize=auto;html=1;entryX=0.5;entryY=0;entryDx=0;entryDy=0;exitX=0;exitY=0.5;exitDx=0;exitDy=0;" edge="1" parent="WIyWlLk6GJQsqaUBKTNV-1" source="m4kFkj_1T138fFASIhZm-35" target="m4kFkj_1T138fFASIhZm-46">
          <mxGeometry relative="1" as="geometry">
            <mxPoint x="360" y="561.52" as="targetPoint" />
            <mxPoint x="420" y="507.52" as="sourcePoint" />
            <Array as="points">
              <mxPoint x="360" y="516" />
            </Array>
          </mxGeometry>
        </mxCell>
        <mxCell id="m4kFkj_1T138fFASIhZm-59" style="edgeStyle=orthogonalEdgeStyle;rounded=0;orthogonalLoop=1;jettySize=auto;html=1;exitX=1;exitY=0.5;exitDx=0;exitDy=0;" edge="1" parent="WIyWlLk6GJQsqaUBKTNV-1" source="m4kFkj_1T138fFASIhZm-35">
          <mxGeometry relative="1" as="geometry">
            <mxPoint x="210" y="20" as="targetPoint" />
            <mxPoint x="680" y="506" as="sourcePoint" />
            <Array as="points">
              <mxPoint x="670" y="516" />
              <mxPoint x="670" y="20" />
            </Array>
          </mxGeometry>
        </mxCell>
        <mxCell id="m4kFkj_1T138fFASIhZm-35" value="&lt;span style=&quot;color: rgb(0, 0, 0); font-family: Helvetica; font-size: 12px; font-style: normal; font-variant-ligatures: normal; font-variant-caps: normal; font-weight: 400; letter-spacing: normal; orphans: 2; text-align: center; text-indent: 0px; text-transform: none; widows: 2; word-spacing: 0px; -webkit-text-stroke-width: 0px; background-color: rgb(251, 251, 251); text-decoration-thickness: initial; text-decoration-style: initial; text-decoration-color: initial; float: none; display: inline !important;&quot;&gt;&lt;br&gt;&lt;/span&gt;Überprüfe den Status der Lichtschranke / Lese die LDR aus&lt;br&gt;" style="rhombus;whiteSpace=wrap;html=1;fillColor=#d5e8d4;strokeColor=#82b366;" vertex="1" parent="WIyWlLk6GJQsqaUBKTNV-1">
          <mxGeometry x="420" y="460" width="230" height="112" as="geometry" />
        </mxCell>
        <mxCell id="m4kFkj_1T138fFASIhZm-37" value="&lt;font style=&quot;font-size: 14px;&quot;&gt;Setze Laser auf HIGH &amp;amp; Schlafe für 10s&lt;/font&gt;" style="rounded=1;whiteSpace=wrap;html=1;fillColor=#dae8fc;strokeColor=#6c8ebf;" vertex="1" parent="WIyWlLk6GJQsqaUBKTNV-1">
          <mxGeometry x="180" y="490" width="120" height="60" as="geometry" />
        </mxCell>
        <mxCell id="m4kFkj_1T138fFASIhZm-38" style="edgeStyle=orthogonalEdgeStyle;rounded=0;orthogonalLoop=1;jettySize=auto;html=1;entryX=0.529;entryY=0.002;entryDx=0;entryDy=0;entryPerimeter=0;exitX=0.5;exitY=1;exitDx=0;exitDy=0;" edge="1" parent="WIyWlLk6GJQsqaUBKTNV-1" source="m4kFkj_1T138fFASIhZm-37" target="m4kFkj_1T138fFASIhZm-10">
          <mxGeometry relative="1" as="geometry">
            <Array as="points">
              <mxPoint x="240" y="590" />
              <mxPoint x="10" y="590" />
              <mxPoint x="10" y="20" />
              <mxPoint x="209" y="20" />
            </Array>
          </mxGeometry>
        </mxCell>
        <mxCell id="m4kFkj_1T138fFASIhZm-39" value="Laser" style="text;html=1;align=center;verticalAlign=middle;resizable=0;points=[];autosize=1;strokeColor=none;fillColor=none;" vertex="1" parent="WIyWlLk6GJQsqaUBKTNV-1">
          <mxGeometry x="240" y="430" width="50" height="30" as="geometry" />
        </mxCell>
        <mxCell id="m4kFkj_1T138fFASIhZm-51" style="edgeStyle=orthogonalEdgeStyle;rounded=0;orthogonalLoop=1;jettySize=auto;html=1;entryX=0.5;entryY=0;entryDx=0;entryDy=0;" edge="1" parent="WIyWlLk6GJQsqaUBKTNV-1" source="m4kFkj_1T138fFASIhZm-46" target="m4kFkj_1T138fFASIhZm-61">
          <mxGeometry relative="1" as="geometry">
            <mxPoint x="360" y="720" as="targetPoint" />
          </mxGeometry>
        </mxCell>
        <mxCell id="m4kFkj_1T138fFASIhZm-63" style="edgeStyle=orthogonalEdgeStyle;rounded=0;orthogonalLoop=1;jettySize=auto;html=1;" edge="1" parent="WIyWlLk6GJQsqaUBKTNV-1" source="m4kFkj_1T138fFASIhZm-46">
          <mxGeometry relative="1" as="geometry">
            <mxPoint x="670" y="520" as="targetPoint" />
          </mxGeometry>
        </mxCell>
        <mxCell id="m4kFkj_1T138fFASIhZm-46" value="&lt;font style=&quot;font-size: 14px;&quot;&gt;Sende &#39;1&#39; an Raspi&lt;/font&gt;" style="rounded=1;whiteSpace=wrap;html=1;fillColor=#d5e8d4;strokeColor=#82b366;" vertex="1" parent="WIyWlLk6GJQsqaUBKTNV-1">
          <mxGeometry x="300" y="600" width="120" height="60" as="geometry" />
        </mxCell>
        <mxCell id="m4kFkj_1T138fFASIhZm-47" value="Laserschranke unterbrochen" style="text;html=1;align=center;verticalAlign=middle;resizable=0;points=[];autosize=1;strokeColor=none;fillColor=none;" vertex="1" parent="WIyWlLk6GJQsqaUBKTNV-1">
          <mxGeometry x="350" y="555" width="180" height="30" as="geometry" />
        </mxCell>
        <mxCell id="m4kFkj_1T138fFASIhZm-48" value="Laserschranke nicht unterbrochen" style="text;html=1;align=center;verticalAlign=middle;resizable=0;points=[];autosize=1;strokeColor=none;fillColor=none;" vertex="1" parent="WIyWlLk6GJQsqaUBKTNV-1">
          <mxGeometry x="470" y="240" width="200" height="30" as="geometry" />
        </mxCell>
        <mxCell id="m4kFkj_1T138fFASIhZm-52" value="Raspi empfängt &#39;1&#39;" style="text;html=1;align=center;verticalAlign=middle;resizable=0;points=[];autosize=1;strokeColor=none;fillColor=none;" vertex="1" parent="WIyWlLk6GJQsqaUBKTNV-1">
          <mxGeometry x="354" y="670" width="120" height="30" as="geometry" />
        </mxCell>
        <mxCell id="m4kFkj_1T138fFASIhZm-60" style="edgeStyle=orthogonalEdgeStyle;rounded=0;orthogonalLoop=1;jettySize=auto;html=1;" edge="1" parent="WIyWlLk6GJQsqaUBKTNV-1" source="m4kFkj_1T138fFASIhZm-54">
          <mxGeometry relative="1" as="geometry">
            <mxPoint x="90" y="590" as="targetPoint" />
          </mxGeometry>
        </mxCell>
        <mxCell id="m4kFkj_1T138fFASIhZm-54" value="Schlafe für 10s" style="rounded=1;whiteSpace=wrap;html=1;" vertex="1" parent="WIyWlLk6GJQsqaUBKTNV-1">
          <mxGeometry x="30" y="490" width="120" height="60" as="geometry" />
        </mxCell>
        <mxCell id="m4kFkj_1T138fFASIhZm-61" value="&lt;span style=&quot;font-size: 14px;&quot;&gt;Raspi loggt Event&lt;/span&gt;" style="rounded=1;whiteSpace=wrap;html=1;fillColor=#f8cecc;strokeColor=#b85450;" vertex="1" parent="WIyWlLk6GJQsqaUBKTNV-1">
          <mxGeometry x="300" y="740" width="120" height="60" as="geometry" />
        </mxCell>
      </root>
    </mxGraphModel>
  </diagram>
</mxfile>
